<svg xmlns="http://www.w3.org/2000/svg" xmlns:xlink="http://www.w3.org/1999/xlink" width="640" zoomAndPan="magnify" viewBox="0 0 480 479.999983" height="640" preserveAspectRatio="xMidYMid meet" version="1.2"><defs><clipPath id="cf6ceb0ce8"><path d="M 240 0 C 107.453125 0 0 107.453125 0 240 C 0 372.546875 107.453125 480 240 480 C 372.546875 480 480 372.546875 480 240 C 480 107.453125 372.546875 0 240 0 Z M 240 0 "/></clipPath><clipPath id="da97b8bc5b"><path d="M 240 0 C 107.453125 0 0 107.453125 0 240 C 0 372.546875 107.453125 480 240 480 C 372.546875 480 480 372.546875 480 240 C 480 107.453125 372.546875 0 240 0 Z M 240 0 "/></clipPath><clipPath id="f01c4befe8"><rect x="0" width="480" y="0" height="480"/></clipPath><clipPath id="0d619ed65b"><path d="M 257.238281 59.648438 L 401.238281 59.648438 L 401.238281 203.648438 L 257.238281 203.648438 Z M 257.238281 59.648438 "/></clipPath><clipPath id="e33d39c274"><path d="M 329.238281 59.648438 C 289.472656 59.648438 257.238281 91.882812 257.238281 131.648438 C 257.238281 171.414062 289.472656 203.648438 329.238281 203.648438 C 369.003906 203.648438 401.238281 171.414062 401.238281 131.648438 C 401.238281 91.882812 369.003906 59.648438 329.238281 59.648438 Z M 329.238281 59.648438 "/></clipPath><clipPath id="1378742d71"><path d="M 0.238281 0.648438 L 144.238281 0.648438 L 144.238281 144.648438 L 0.238281 144.648438 Z M 0.238281 0.648438 "/></clipPath><clipPath id="fb486b5847"><path d="M 72.238281 0.648438 C 32.472656 0.648438 0.238281 32.882812 0.238281 72.648438 C 0.238281 112.414062 32.472656 144.648438 72.238281 144.648438 C 112.003906 144.648438 144.238281 112.414062 144.238281 72.648438 C 144.238281 32.882812 112.003906 0.648438 72.238281 0.648438 Z M 72.238281 0.648438 "/></clipPath><clipPath id="fb56413fb2"><rect x="0" width="145" y="0" height="145"/></clipPath></defs><g id="ed32b2032f"><g clip-rule="nonzero" clip-path="url(#cf6ceb0ce8)"><g transform="matrix(1,0,0,1,0,0)"><g clip-path="url(#f01c4befe8)"><g clip-rule="nonzero" clip-path="url(#da97b8bc5b)"><rect x="0" width="480" height="480" y="0" style="fill:#223070;fill-opacity:1;stroke:none;"/></g></g></g><path style="fill:none;stroke-width:34;stroke-linecap:butt;stroke-linejoin:miter;stroke:#fffffe;stroke-opacity:1;stroke-miterlimit:4;" d="M 320.000013 0 C 143.270833 0 -0.0000113333 143.270844 -0.0000113333 320.000025 C -0.0000113333 496.729205 143.270833 640.000049 320.000013 640.000049 C 496.729194 640.000049 640.000038 496.729205 640.000038 320.000025 C 640.000038 143.270844 496.729194 0 320.000013 0 Z M 320.000013 0 " transform="matrix(0.75,0,0,0.75,0.0000085,0)"/></g><g clip-rule="nonzero" clip-path="url(#0d619ed65b)"><g clip-rule="nonzero" clip-path="url(#e33d39c274)"><g transform="matrix(1,0,0,1,257,59)"><g clip-path="url(#fb56413fb2)"><g clip-rule="nonzero" clip-path="url(#1378742d71)"><g clip-rule="nonzero" clip-path="url(#fb486b5847)"><path style=" stroke:none;fill-rule:nonzero;fill:#ffffff;fill-opacity:1;" d="M 0.238281 0.648438 L 144.238281 0.648438 L 144.238281 144.648438 L 0.238281 144.648438 Z M 0.238281 0.648438 "/></g></g></g></g></g></g></g></svg>